<?xml version="1.0" encoding="UTF-8" standalone="no"?>
<!-- Created with Inkscape (http://www.inkscape.org/) -->

<svg
   version="1.1"
   id="svg1"
   width="287.98666"
   height="288"
   viewBox="0 0 287.98666 288"
   sodipodi:docname="R-Graphic-CLR.svg"
   inkscape:version="1.4 (e7c3feb, 2024-10-09)"
   xmlns:inkscape="http://www.inkscape.org/namespaces/inkscape"
   xmlns:sodipodi="http://sodipodi.sourceforge.net/DTD/sodipodi-0.dtd"
   xmlns="http://www.w3.org/2000/svg"
   xmlns:svg="http://www.w3.org/2000/svg">
  <defs
     id="defs1" />
  <sodipodi:namedview
     id="namedview1"
     pagecolor="#ffffff"
     bordercolor="#000000"
     borderopacity="0.25"
     inkscape:showpageshadow="2"
     inkscape:pageopacity="0.0"
     inkscape:pagecheckerboard="0"
     inkscape:deskcolor="#d1d1d1"
     inkscape:zoom="6.6597222"
     inkscape:cx="144"
     inkscape:cy="144"
     inkscape:window-width="3840"
     inkscape:window-height="2123"
     inkscape:window-x="3840"
     inkscape:window-y="0"
     inkscape:window-maximized="1"
     inkscape:current-layer="g1">
    <inkscape:page
       x="0"
       y="0"
       inkscape:label="1"
       id="page1"
       width="287.98666"
       height="288"
       margin="0"
       bleed="0" />
  </sodipodi:namedview>
  <g
     id="g1"
     inkscape:groupmode="layer"
     inkscape:label="1">
    <g
       id="group-R5">
      <path
         id="path2"
         d="m 1197.51,2062.82 c -38.57,4.57 -77.76,7.19 -117.57,7.19 -359.635,0 -674.436,-191.8 -847.823,-478.65 l 321.028,-395.41 793.405,327.39 -149.04,539.48"
         style="fill:#52afe6;fill-opacity:1;fill-rule:nonzero;stroke:none"
         transform="matrix(0.13333333,0,0,-0.13333333,0,288)" />
      <path
         id="path3"
         d="M 1346.55,1523.34 553.145,1195.95 1035.81,601.512 1505.84,946.75 1346.55,1523.34"
         style="fill:#e41d25;fill-opacity:1;fill-rule:nonzero;stroke:none"
         transform="matrix(0.13333333,0,0,-0.13333333,0,288)" />
      <path
         id="path4"
         d="M 232.117,1591.36 C 141.91,1442.08 89.9453,1267.12 89.9453,1080.01 c 0,-24.9 1.2266,-49.49 3.0235,-73.93 l 460.1762,189.87 -321.028,395.41"
         style="fill:#3c8fcb;fill-opacity:1;fill-rule:nonzero;stroke:none"
         transform="matrix(0.13333333,0,0,-0.13333333,0,288)" />
      <path
         id="path5"
         d="m 2036.24,1336.36 c -103.15,385.76 -433.37,678.48 -838.73,726.46 l 308.33,-1116.07 530.4,389.61"
         style="fill:#f9b41c;fill-opacity:1;fill-rule:nonzero;stroke:none"
         transform="matrix(0.13333333,0,0,-0.13333333,0,288)" />
      <path
         id="path6"
         d="m 1505.84,946.75 179.5,-649.828 c 233.88,181.098 384.61,464.418 384.61,783.088 0,88.69 -11.82,174.59 -33.71,256.35 l -530.4,-389.61"
         style="fill:#fad007;fill-opacity:1;fill-rule:nonzero;stroke:none"
         transform="matrix(0.13333333,0,0,-0.13333333,0,288)" />
      <path
         id="path7"
         d="m 1035.81,601.512 370.4,-456.211 c 101.64,35.469 195.66,87.008 279.13,151.621 L 1505.84,946.75 1035.81,601.512"
         style="fill:#ef3836;fill-opacity:1;fill-rule:nonzero;stroke:none"
         transform="matrix(0.13333333,0,0,-0.13333333,0,288)" />
      <path
         id="path8"
         d="M 553.145,1195.95 92.9688,1006.08 C 116.68,685.48 292.898,407.512 549.508,244.289 L 1035.81,601.512 553.145,1195.95"
         style="fill:#4fbe38;fill-opacity:1;fill-rule:nonzero;stroke:none"
         transform="matrix(0.13333333,0,0,-0.13333333,0,288)" />
      <path
         id="path9"
         d="M 549.508,244.289 C 702.852,146.73 884.734,89.9883 1079.94,89.9883 c 114.37,0 224.09,19.6327 326.27,55.3127 L 1035.81,601.512 549.508,244.289"
         style="fill:#80cc2a;fill-opacity:1;fill-rule:nonzero;stroke:none"
         transform="matrix(0.13333333,0,0,-0.13333333,0,288)" />
    </g>
  </g>
</svg>
